<svg xmlns="http://www.w3.org/2000/svg" viewBox="0 0 200 146.77"><defs><style>.cls-1{fill:#0c3346;}</style></defs><g id="Camada_2" data-name="Camada 2"><g id="Camada_1-2" data-name="Camada 1"><path class="cls-1" d="M97.18,110.61a3.11,3.11,0,0,1,0-.43V38.85a2.82,2.82,0,0,1,.24-1.15c.17-.38,4.19-9.32,13.3-9.32a15,15,0,0,1,12.19,5.89c2.5.82,8.59,3.33,11.71,8.9a15.5,15.5,0,0,1,1.57,10.59,16,16,0,0,1,8.25,6.45c2,3.37,2.31,7.4.94,12,1.68,5,1.68,9.1,0,12.5-1.94,4-5.77,6.16-9.45,7.57.82,4.28,1.09,9.54-1.7,13.63-1.86,2.72-4.82,4.52-8.81,5.37-1.82,4.34-7.18,7-14.35,7.07H111C104.7,118.34,98,116,97.18,110.61Zm5.67-71.09v70.37c.39,1.2,3.55,2.73,8.2,2.75,4.31,0,8.9-1.48,9.3-4.28a2.86,2.86,0,0,1,2.45-2.42c3.31-.43,5.51-1.5,6.71-3.26,1.57-2.29,1.67-6.08.32-11.59a2.83,2.83,0,0,1,1.9-3.39c4.71-1.5,7.41-3.25,8.52-5.5s.86-5.08-.58-9a2.91,2.91,0,0,1,0-1.91c1.14-3.33,1.1-6.08-.13-8.18-2.14-3.64-7.24-4.6-7.28-4.61A2.85,2.85,0,0,1,130,54.85c1.12-3.48,1-6.38-.39-8.87-2.65-4.8-9.14-6.49-9.2-6.5a3,3,0,0,1-1.78-1.35,9.28,9.28,0,0,0-8-4.05C106.19,34.08,103.62,38.09,102.85,39.52Z"/><path class="cls-1" d="M123.75,74.13A16.31,16.31,0,0,0,126,74a2.85,2.85,0,1,0-.76-5.64c-1,.12-9.39,1-11-6.84a6.25,6.25,0,0,1,.77-5.1c1.82-2.6,5.93-3.71,7.36-3.91a2.85,2.85,0,0,0-.77-5.65c-.31,0-7.6,1.09-11.24,6.26a11.76,11.76,0,0,0-1.69,9.58C110.51,71.81,118.41,74.13,123.75,74.13Z"/><path class="cls-1" d="M132.6,93.26a2.85,2.85,0,0,0,.66-5.62c-.33-.08-8.41-2.17-8.53-9-.12-6.48,8-7.42,8.3-7.46a2.85,2.85,0,1,0-.61-5.66c-4.7.5-13.55,3.92-13.39,13.22.16,9,8.51,13.37,12.9,14.42A2.56,2.56,0,0,0,132.6,93.26Z"/><path class="cls-1" d="M111.08,106.09a3.13,3.13,0,0,0,.85-.13,2.86,2.86,0,0,0,1.88-3.56c-.6-2-1.6-7.76,1-10.7,2.32-2.62,7.17-2.41,10.83-1.77a2.85,2.85,0,0,0,1-5.62c-7.42-1.29-12.83-.07-16.1,3.64-5.22,5.94-2.28,15.72-2.15,16.13A2.86,2.86,0,0,0,111.08,106.09Z"/><path class="cls-1" d="M120.33,109c-.49-5.74-1.16-8.25-1.47-8.83a2.85,2.85,0,0,1,4.42-3.6c.61.73,1.89,2.23,2.73,11.94a2.85,2.85,0,0,1-2.59,3.09h-.25A2.86,2.86,0,0,1,120.33,109Zm-1.4-8.74,0,0Z"/><path class="cls-1" d="M131.21,82.24h.23c11.61-.91,13.6-9,13.68-9.35a2.85,2.85,0,0,0-5.54-1.32c-.08.26-1.38,4.42-8.59,5a2.85,2.85,0,0,0,.22,5.69Z"/><path class="cls-1" d="M111.36,82.25h.52a2.85,2.85,0,1,0-.16-5.7,9.65,9.65,0,0,1-9.1-5.41,2.85,2.85,0,0,0-5.25,2.21A15.25,15.25,0,0,0,111.36,82.25Z"/><path class="cls-1" d="M121.5,63.55A2.84,2.84,0,0,0,124,62.17c1.14-1.9,6.1-3.28,9.09-3.61a2.85,2.85,0,0,0-.62-5.67c-1.71.19-10.38,1.37-13.36,6.35a2.85,2.85,0,0,0,1,3.91A2.9,2.9,0,0,0,121.5,63.55Z"/><path class="cls-1" d="M110,46.71a2.84,2.84,0,0,1-2.52-3.14c.55-5.12,9.14-8.4,12.81-9.57A2.85,2.85,0,0,1,122,39.42c-4.1,1.32-8.4,3.66-8.9,4.83a2.84,2.84,0,0,1-2.82,2.48Zm3.14-2.52Z"/><path class="cls-1" d="M88.93,118.39c-7.16,0-12.52-2.73-14.34-7.07-4-.85-7-2.65-8.81-5.37-2.79-4.09-2.52-9.35-1.7-13.63-3.68-1.41-7.51-3.6-9.45-7.57-1.66-3.4-1.66-7.5,0-12.5-1.37-4.59-1-8.62.94-12a16,16,0,0,1,8.25-6.45,15.5,15.5,0,0,1,1.57-10.59c3.12-5.57,9.21-8.08,11.71-8.9a15,15,0,0,1,12.19-5.89c9.11,0,13.13,8.94,13.3,9.32a2.82,2.82,0,0,1,.24,1.15v71.33a3.22,3.22,0,0,1,0,.43C102,116,95.3,118.39,89,118.39Zm8.22-78.82c-.77-1.43-3.34-5.44-7.84-5.44a9.25,9.25,0,0,0-7.93,4,2.83,2.83,0,0,1-1.8,1.37c-.06,0-6.55,1.71-9.2,6.51C69,48.52,68.87,51.42,70,54.9a2.87,2.87,0,0,1-2.22,3.68s-5.15,1-7.29,4.61c-1.23,2.1-1.27,4.85-.13,8.18a2.91,2.91,0,0,1,0,1.91c-1.44,3.89-1.63,6.82-.58,9s3.81,4,8.52,5.49a2.85,2.85,0,0,1,1.9,3.4c-1.35,5.5-1.25,9.29.32,11.59,1.2,1.76,3.4,2.83,6.71,3.26a2.86,2.86,0,0,1,2.45,2.41c.4,2.8,5,4.28,9.3,4.29h0c4.62,0,7.76-1.56,8.15-2.75Z"/><path class="cls-1" d="M78.15,74.66c4.28,0,11.26-2.41,13.28-11.93a11.76,11.76,0,0,0-1.69-9.58C86.1,48,78.81,46.94,78.5,46.89a2.85,2.85,0,0,0-.77,5.65c1.43.2,5.54,1.31,7.36,3.91a6.25,6.25,0,0,1,.77,5.1c-1.66,7.78-7.6,7.44-8.26,7.38A2.85,2.85,0,0,0,77,74.59,10.74,10.74,0,0,0,78.15,74.66Z"/><path class="cls-1" d="M67.4,93.31a3.07,3.07,0,0,0,.67-.08C72.46,92.17,80.81,87.8,81,78.81c.16-9.3-8.69-12.72-13.39-13.22A2.85,2.85,0,1,0,67,71.25c.37,0,8.43,1.06,8.31,7.46-.12,6.81-8.2,8.9-8.54,9a2.85,2.85,0,0,0,.67,5.62Z"/><path class="cls-1" d="M88.92,106.13a2.85,2.85,0,0,0,2.72-2c.13-.42,3.07-10.19-2.15-16.13-3.27-3.71-8.68-4.93-16.1-3.64a2.85,2.85,0,1,0,1,5.62c3.66-.64,8.52-.85,10.84,1.78,2.59,2.95,1.55,8.85,1,10.68A2.87,2.87,0,0,0,88.07,106,3.12,3.12,0,0,0,88.92,106.13Z"/><path class="cls-1" d="M76.58,111.66A2.85,2.85,0,0,1,74,108.57c.84-9.71,2.12-11.21,2.73-11.94a2.85,2.85,0,0,1,4.42,3.6c-.31.57-1,3.09-1.47,8.83a2.86,2.86,0,0,1-2.84,2.61Zm4.49-11.34,0,0Z"/><path class="cls-1" d="M68.79,82.29A2.85,2.85,0,0,0,69,76.6c-8.26-.72-8.53-4.16-8.54-4.3a.39.39,0,0,1,0,.12l-5.69-.25c0,.36-.23,8.88,13.73,10.11Z"/><path class="cls-1" d="M88.64,82.3a15.25,15.25,0,0,0,14-8.91,2.85,2.85,0,0,0-5.25-2.21,9.59,9.59,0,0,1-9.1,5.41,2.85,2.85,0,0,0-.16,5.7Z"/><path class="cls-1" d="M78.5,63.6A2.9,2.9,0,0,0,80,63.2a2.85,2.85,0,0,0,1-3.91c-3-5-11.65-6.16-13.36-6.35A2.85,2.85,0,0,0,67,58.61h0c3,.33,8,1.71,9.09,3.61A2.84,2.84,0,0,0,78.5,63.6Z"/><path class="cls-1" d="M86.92,44.3c-.5-1.17-4.8-3.51-8.9-4.83h0a2.85,2.85,0,0,1,1.74-5.42C83.43,35.22,92,38.5,92.57,43.62a2.84,2.84,0,0,1-2.52,3.14l-.31,0A2.84,2.84,0,0,1,86.92,44.3Zm0-.06Z"/><path class="cls-1" d="M194.84,86.69c-.51,3.24-.9,5.72-1.07,6.85-.55,3.73-7.42,12-20.76,27-3,3.36-5.58,6.26-6.58,7.56-1.87,2.44-6.85,8.9-12.41,5.27a6.83,6.83,0,0,1-3.27-4.33c-1.44-5.79,3.92-14.2,9.1-22.34,1.83-2.87,3.55-5.58,4.73-7.82,2.38-4.52,3-11.6,3.2-16.49a11.11,11.11,0,0,1-5.66-1.86c-4.19-2.5-10-8.21-9.92-13.11.3-12-.87-20.7-3.21-23.86-9-11,1-25,4.32-29.67C158.14,7.12,172,.46,177.86,0h0c6.6-.5,18.79,8.37,21.17,10.16l1,.72V50.38C200,53.71,197.34,70.87,194.84,86.69ZM178.22,4.85h0c-4.13.31-17,6.24-21,11.85-7.64,10.69-9.06,18.26-4.47,23.82l.06.09c3.13,4.15,4.55,13.2,4.21,26.92v0c0,1.5,2.16,4.78,5.7,7.51,2.53,2,4.33,2.49,4.95,2.47a2.78,2.78,0,0,0,.07-.75l4.84-.15c0,.65.8,15.85-3.73,24.47-1.28,2.42-3.06,5.21-4.94,8.17-4,6.25-9.42,14.8-8.48,18.58a2,2,0,0,0,1,1.33l.14.09c.55.36,1.83,1.22,6-4.15,1.11-1.44,3.62-4.26,6.81-7.83,6.17-6.94,19-21.37,19.58-24.48.17-1.13.57-3.63,1.08-6.9,1.66-10.49,5.1-32.32,5.1-35.55v-37C189.78,9.45,181.55,4.6,178.22,4.85Z"/><path class="cls-1" d="M177.52,40.38c-4.4,0-4.87,1.87-4.92,2.21V76.87a2.42,2.42,0,1,1-4.84,0V42.47c0-2.37,2.1-6.87,9.72-6.93a2.42,2.42,0,0,1,2.44,2.4v0A2.42,2.42,0,0,1,177.52,40.38Zm-4.92,2.18v0Z"/><path class="cls-1" d="M5.16,60.08c.51-3.23.9-5.72,1.07-6.84.55-3.73,7.42-12,20.76-27,3-3.37,5.58-6.27,6.58-7.57,1.87-2.43,6.85-8.89,12.41-5.27a6.86,6.86,0,0,1,3.27,4.33c1.44,5.8-3.92,14.21-9.1,22.34-1.83,2.87-3.55,5.58-4.73,7.83-2.38,4.51-3,11.59-3.2,16.48a11.13,11.13,0,0,1,5.66,1.87c4.19,2.5,10,8.2,9.92,13.1-.3,12,.87,20.71,3.21,23.86,9,11-1,25.05-4.32,29.67-4.83,6.76-18.72,13.42-24.55,13.86h0c-6.6.5-18.79-8.37-21.17-10.15l-1-.73V96.39C0,93.06,2.66,75.9,5.16,60.08Zm16.62,81.85h0c4.13-.31,17-6.25,21-11.85,7.64-10.69,9.06-18.27,4.47-23.83l-.06-.08C44,102,42.62,93,43,79.24v0c0-1.5-2.16-4.78-5.7-7.51-2.53-2-4.33-2.49-4.95-2.47a2.82,2.82,0,0,0-.07.76l-4.84.14c0-.64-.8-15.84,3.73-24.46,1.28-2.43,3.06-5.22,4.94-8.18,4-6.24,9.42-14.8,8.48-18.58a2,2,0,0,0-1-1.33l-.14-.08c-.55-.37-1.83-1.22-6,4.15-1.11,1.43-3.62,4.25-6.81,7.83C24.43,36.4,11.57,50.84,11,53.94c-.17,1.14-.57,3.64-1.08,6.9-1.66,10.49-5.1,32.32-5.1,35.55v37.05C10.22,137.33,18.45,142.18,21.78,141.93Z"/><path class="cls-1" d="M22.48,106.39c4.4,0,4.87-1.87,4.92-2.2V69.9a2.42,2.42,0,0,1,4.84,0v34.41c0,2.37-2.1,6.86-9.72,6.92a2.41,2.41,0,0,1-2.44-2.4v0A2.43,2.43,0,0,1,22.48,106.39Zm4.92-2.18v0Z"/></g></g></svg>